# xmcd CD database file
#
# Track frame offsets:
#	150
#	26609
#	50054
#	68901
#	92415
#	128077
#	152617
#	185117
#	211173
#
# Disc length: 3150 seconds
#
# Revision: 0
# Processed by: cddbd v1.5.2PL0 Copyright (c) Steve Scherf et al.
# Submitted via: CDex 1.51
#
DISCID=770c4c09
DTITLE=pierini - além dos olhos
DYEAR=2000
DGENRE=New Age
TTITLE0=vênus
TTITLE1=a alma poética
TTITLE2=viajantes
TTITLE3=além dos olhos
TTITLE4=natural
TTITLE5=tardes de chuva
TTITLE6=a noite dos magos -o descortinar
TTITLE7=juntos caminharemos p-1 passo a passo
TTITLE8=juntos caminharemos p-2 de mãos dadas
EXTD=YEAR: 2000
EXTT0=
EXTT1=
EXTT2=
EXTT3=
EXTT4=
EXTT5=
EXTT6=
EXTT7=
EXTT8=
PLAYORDER=
